<svg width="96" height="96" viewBox="0 0 96 96" fill="none" xmlns="http://www.w3.org/2000/svg">
<circle cx="48" cy="48" r="16" stroke="#F6A219" stroke-width="2"/>
<circle cx="48" cy="43" r="5" stroke="#F6A219" stroke-width="2"/>
<path d="M41 57V54C41 52.4151 42.3087 51 43.9072 51H52.0928C53.6922 51 55 52.4156 55 54V57" stroke="#F6A219" stroke-width="2"/>
<path d="M48 2V26M48 2L40 10M48 2L56 10M48 94V70M48 94L40 86M48 94L56 86" stroke="#F6A219" stroke-width="2"/>
<path d="M80.5269 15.4733L63.5563 32.4438M80.5269 15.4733H69.2132M80.5269 15.4733V26.787M15.4731 80.5271L32.4437 63.5565M15.4731 80.5271V69.2134M15.4731 80.5271H26.7868" stroke="#F6A219" stroke-width="2"/>
<path d="M94 48L70 48M94 48L86 40M94 48L86 56M2 48L26 48M2 48L10 40M2 48L10 56" stroke="#F6A219" stroke-width="2"/>
<path d="M80.5269 80.527L63.5563 63.5564M80.5269 80.527L80.5269 69.2133M80.5269 80.527L69.2132 80.527M15.4731 15.4731L32.4437 32.4437M15.4731 15.4731L26.7868 15.4731M15.4731 15.4731L15.4731 26.7869" stroke="#F6A219" stroke-width="2"/>
</svg>
