<?xml version="1.0" encoding="utf-8"?><svg xmlns="http://www.w3.org/2000/svg" xmlns:xlink="http://www.w3.org/1999/xlink"><symbol fill="none" viewBox="0 0 104 78" id="about-1" xmlns="http://www.w3.org/2000/svg"><path d="M71.818 1.406C88.726-1.364 103 10.306 103 28.184c0 11.487-15.42 35.086-24.812 47.993a1.994 1.994 0 01-3.228 0A296.334 296.334 0 0167.88 66M47.244 1.406c16.87-2.764 31.182 8.862 31.182 26.778 0 11.907-16.426 36.457-24.811 47.99a1.994 1.994 0 01-3.229.003A293.28 293.28 0 0143.306 66M27.426 1.025C12.114 1.025 1 12.447 1 28.185 1 39.676 16.417 63.27 25.812 76.176a1.994 1.994 0 003.229-.003c8.384-11.532 24.809-36.086 24.809-47.99 0-15.724-11.099-27.16-26.424-27.16zm0 38.892c-7.05 0-12.79-5.758-12.79-12.841 0-7.088 5.743-12.844 12.79-12.844 7.047 0 12.79 5.756 12.79 12.844 0 7.094-5.75 12.841-12.79 12.841z" stroke="#F6A219" stroke-width="2"/></symbol><symbol fill="none" viewBox="0 0 96 96" id="about-2" xmlns="http://www.w3.org/2000/svg"><circle cx="48" cy="48" r="16" stroke="#F6A219" stroke-width="2"/><circle cx="48" cy="43" r="5" stroke="#F6A219" stroke-width="2"/><path d="M41 57v-3c0-1.585 1.309-3 2.907-3h8.186c1.6 0 2.907 1.416 2.907 3v3M48 2v24m0-24l-8 8m8-8l8 8m-8 84V70m0 24l-8-8m8 8l8-8m24.527-70.527l-16.97 16.97m16.97-16.97H69.213m11.314 0v11.314m-65.054 53.74l16.97-16.97m-16.97 16.97V69.213m0 11.314h11.314M94 48H70m24 0l-8-8m8 8l-8 8M2 48h24M2 48l8-8m-8 8l8 8m70.527 24.527l-16.97-16.97m16.97 16.97V69.213m0 11.314H69.213m-53.74-65.054l16.97 16.97m-16.97-16.97h11.314m-11.314 0v11.314" stroke="#F6A219" stroke-width="2"/></symbol><symbol fill="none" viewBox="0 0 123 81" id="about-3" xmlns="http://www.w3.org/2000/svg"><path d="M33.34 7.05l1.309.469c2.172.79 4.615.642 6.688-.37l1.53-.74a11.805 11.805 0 018.886-.544l30.48 10.514c.593.198 1.013.79.988 1.432-.025.222-.198 5.405-3.85 7.922-2.271 1.555-5.208 1.728-8.787.494l-11.378-3.9c-.962 2.567-3.504 7.75-8.786 10.588-2.419 1.309-5.084 1.95-7.997 1.95-2.542 0-5.281-.493-8.169-1.48M33.341 7.05l-1.308-.469c-.124-.074-.247-.148-.37-.197L16.064 1.077a1.508 1.508 0 00-1.135.074 1.46 1.46 0 00-.74.84L1.082 40.22c-.272.765.148 1.604.913 1.876l15.623 5.355c.173.075.32.1.494.1a1.46 1.46 0 001.382-.987L33.34 7.049zm72.71 40.353L86.059 10.629a1.486 1.486 0 01.691-1.975l14.833-7.256a1.51 1.51 0 011.136-.074c.37.123.666.395.839.74l17.82 36.207c.345.74.049 1.604-.692 1.975l-14.635 7.157zm0 0l-6.442 5.924A72.116 72.116 0 0182.456 65.05L54.048 78.945a6.283 6.283 0 01-2.74.642 6.49 6.49 0 01-2.048-.346 6.276 6.276 0 01-3.603-3.183 5.976 5.976 0 01-.617-3.382M68.387 61.25L45.039 72.676m0 0l-2.69 1.333a6.102 6.102 0 01-2.74.642 6.247 6.247 0 01-5.627-3.505 6.349 6.349 0 01-.542-3.776m22.805-11.156L33.44 67.37m0 0c-.272.025-.543.05-.815.05a6.247 6.247 0 01-5.627-3.505c-1.21-2.468-.642-5.356 1.234-7.207m20.41-9.996l-20.41 9.996m0 0c-1.136-.617-2.073-1.555-2.641-2.74a6.208 6.208 0 01-.296-4.788 6.275 6.275 0 013.184-3.603l10.834-5.307" stroke="#F6A219" stroke-width="2"/></symbol><symbol fill="none" viewBox="0 0 99 98" id="about-4" xmlns="http://www.w3.org/2000/svg"><path d="M67 30v-1.298C67 26.115 69.135 24 71.743 24h21.514C95.867 24 98 26.116 98 28.702v19.632c0 2.586-2.442 4.702-5.052 4.702H92v19.262C92 74.884 89.866 77 87.257 77h-9.514C75.133 77 73 74.884 73 72.298V71m-47 0v1.298C26 74.884 23.866 77 21.257 77h-9.514C9.134 77 7 74.884 7 72.298V53.036h-.948C3.442 53.036 1 50.92 1 48.334V28.702C1 26.116 3.134 24 5.743 24h21.514C29.865 24 32 26.115 32 28.702V30m60-19.517a9.468 9.468 0 01-9.5 9.482 9.468 9.468 0 01-9.5-9.482A9.468 9.468 0 0182.5 1c5.283 0 9.5 4.245 9.5 9.482zM32 40.7c0-2.584 2.055-4.7 4.654-4.7h25.603C64.865 36 67 38.116 67 40.702V65.34c0 2.586-1.821 4.66-4.43 4.66H61v22.298C61 94.884 58.865 97 56.257 97H42.743C40.135 97 38 94.884 38 92.298V70h-1.729C33.662 70 32 68.004 32 65.418V40.7zm28.529-19.404c0 6.016-4.92 10.893-10.99 10.893-6.068 0-10.988-4.877-10.988-10.893 0-6.016 4.92-10.893 10.989-10.893 6.069 0 10.989 4.877 10.989 10.893zM7 10.482a9.468 9.468 0 009.5 9.483c5.283 0 9.5-4.245 9.5-9.482A9.468 9.468 0 0016.5 1 9.468 9.468 0 007 10.482z" stroke="#F6A219" stroke-width="2"/></symbol><symbol fill="none" viewBox="0 0 82 76" id="about-5" xmlns="http://www.w3.org/2000/svg"><path d="M1 29v46h80V29M1 29l10 7.5M1 29h10M1 29l10-7.5M81 29l-10 7.5M81 29H71m10 0l-10-7.5m-60 15V1h60v35.5m-60 0L41 59l30-22.5M22 17h38m-38 8h38m-38 7h38m-38 7h38" stroke="#F6A219" stroke-width="2"/></symbol><symbol fill="none" viewBox="0 0 20 14" id="arrow-left" xmlns="http://www.w3.org/2000/svg"><path d="M20 7H2m0 0l6-6M2 7l6 6" stroke="#0036B0" stroke-width="2"/></symbol><symbol fill="none" viewBox="0 0 20 14" id="arrow-right" xmlns="http://www.w3.org/2000/svg"><path d="M0 7h18m0 0l-6-6m6 6l-6 6" stroke="#0036B0" stroke-width="2"/></symbol><symbol fill="none" viewBox="0 0 40 40" id="benefit-1" xmlns="http://www.w3.org/2000/svg"><path d="M33.627 20.417v-5.624h-2v5.624h2zm0-5.624c0-1.392-1.16-2.46-2.514-2.46v2c.319 0 .514.24.514.46h2zm-2.514-2.46H7.225v2h23.888v-2zm-23.888 0c-1.354 0-2.514 1.068-2.514 2.46h2c0-.22.195-.46.514-.46v-2zm-2.514 2.46V34.54h2V14.793h-2zm0 19.747c0 1.392 1.16 2.46 2.514 2.46v-2c-.319 0-.514-.24-.514-.46h-2zM7.225 37h23.888v-2H7.225v2zm23.888 0c1.354 0 2.514-1.068 2.514-2.46h-2c0 .22-.195.46-.514.46v2zm2.514-2.46v-5.623h-2v5.623h2zm0-5.623v-8.5h-2v8.5h2z" fill="#F6A219"/><path d="M24 10a4 4 0 100-8 4 4 0 000 8zm-13.968 2a3.194 3.194 0 01-.032-.445C10 9.592 11.79 8 14 8s4 1.592 4 3.555c0 .15-.012.3-.032.445M33 22H22.209c-.668 0-1.209.42-1.209.94v3.12c0 .52.541.94 1.209.94H33" stroke="#F6A219" stroke-width="2"/></symbol><symbol fill="none" viewBox="0 0 40 40" id="benefit-2" xmlns="http://www.w3.org/2000/svg"><path d="M33.62 7v1-1zM17.682 7V6v1zm-3.334 4.238v1h1v-1h-1zm-6.61 1.68l-.869-.496.869.496zm-4.691 8.209l-.868-.496-.132.23v.266h1zm0 8.556h1-1zm7.77 7.984a4.532 4.532 0 004.531-4.532h-2a2.532 2.532 0 01-2.531 2.532v2zm-4.532-4.532a4.532 4.532 0 004.532 4.532v-2a2.532 2.532 0 01-2.532-2.532h-2zm4.532-4.532a4.532 4.532 0 00-4.532 4.532h2a2.532 2.532 0 012.532-2.532v-2zm4.531 4.532a4.532 4.532 0 00-4.531-4.532v2a2.532 2.532 0 012.531 2.532h2zm17.778 0a2.532 2.532 0 01-2.532 2.532v2a4.532 4.532 0 004.532-4.532h-2zm-2.532-2.532a2.532 2.532 0 012.532 2.532h2a4.532 4.532 0 00-4.532-4.532v2zm-2.531 2.532a2.532 2.532 0 012.531-2.532v-2a4.532 4.532 0 00-4.531 4.532h2zm2.531 2.532a2.532 2.532 0 01-2.531-2.532h-2a4.532 4.532 0 004.531 4.532v-2zM6.381 34.016H7v-2h-.619v2zm7.968 0H27v-2H14.35v2zm23.603-3.953v-19.73h-2v19.73h2zM33.62 6H17.683v2h15.936V6zm-20.27 4.333v.905h2v-.905h-2zm1-.095h-3.716v2h3.716v-2zm-7.48 2.184L2.18 20.63l1.736.992 4.69-8.21-1.736-.992zm-4.822 8.705v8.556h2v-8.556h-2zm8.585-10.889a4.334 4.334 0 00-3.763 2.184l1.737.992a2.333 2.333 0 012.026-1.176v-2zM17.683 6a4.333 4.333 0 00-4.334 4.333h2A2.333 2.333 0 0117.683 8V6zm20.27 4.333A4.333 4.333 0 0033.618 6v2a2.333 2.333 0 012.333 2.333h2zm-3.787 23.68a3.953 3.953 0 003.786-3.95h-2c0 1.05-.83 1.908-1.869 1.951l.084 1.998zM6.381 32.015a2.333 2.333 0 01-2.333-2.333h-2a4.333 4.333 0 004.333 4.333v-2z" fill="#F6A219"/><path d="M7 14.063h7.35v7.064H3" stroke="#F6A219" stroke-width="2"/></symbol><symbol fill="none" viewBox="0 0 40 40" id="benefit-3" xmlns="http://www.w3.org/2000/svg"><path d="M20 2l.326-.945L20 .942l-.326.113L20 2zm14.927 5.143h1V6.43l-.674-.233-.326.946zm-29.854 0l-.326-.946-.674.233v.713h1zm-.012.432l-1-.032 1 .032zm3.122 21.418l.841-.54-.012-.02L9 28.416l-.817.578zm23.634 0L31 28.415l-.012.019-.012.018.84.541zm3.122-21.418l1-.032-1 .032zm-15.265-4.63l14.928 5.143.651-1.89-14.927-5.143-.652 1.89zM5.4 8.088l14.927-5.143-.652-1.89L4.747 6.197l.652 1.891zm.662-.481c.006-.208.012-.379.012-.464h-2c0 .044-.004.168-.011.4l1.999.064zM9 28.415c-.8-1.13-1.42-2.795-1.879-4.784-.455-1.973-.734-4.183-.9-6.342-.332-4.316-.203-8.338-.16-9.682l-2-.064c-.043 1.353-.175 5.467.166 9.9.17 2.215.46 4.533.945 6.637.482 2.088 1.174 4.049 2.195 5.491L9 28.415zM20 37c.009 0-.138-.015-.507-.17-.331-.14-.75-.353-1.238-.633-.975-.557-2.165-1.345-3.38-2.244-2.47-1.827-4.877-3.987-5.85-5.5l-1.683 1.081c1.188 1.847 3.86 4.19 6.343 6.027 1.261.932 2.517 1.766 3.576 2.372a13.91 13.91 0 001.455.74c.395.166.86.327 1.284.327v-2zm10.976-8.548c-.974 1.514-3.38 3.674-5.85 5.5-1.216.9-2.406 1.688-3.38 2.245-.49.28-.908.493-1.24.632-.368.156-.515.171-.506.171v2c.423 0 .89-.161 1.284-.328a13.91 13.91 0 001.455-.739c1.059-.606 2.314-1.44 3.575-2.372 2.484-1.837 5.156-4.18 6.344-6.027l-1.683-1.082zM33.94 7.607c.042 1.344.17 5.366-.16 9.682-.167 2.159-.446 4.369-.901 6.341-.459 1.99-1.078 3.655-1.878 4.785l1.632 1.156c1.021-1.442 1.713-3.403 2.195-5.49.485-2.105.775-4.423.945-6.639.34-4.432.209-8.546.165-9.899l-1.998.064zm-.013-.464c0 .085.006.256.013.464l1.998-.064a21.469 21.469 0 01-.01-.4h-2zM28 18.5a8 8 0 01-8 8v2c5.523 0 10-4.477 10-10h-2zm-8-8a8 8 0 018 8h2c0-5.523-4.477-10-10-10v2zm-8 8a8 8 0 018-8v-2c-5.523 0-10 4.477-10 10h2zm8 8a8 8 0 01-8-8h-2c0 5.523 4.477 10 10 10v-2z" fill="#F6A219"/><path d="M15.5 18.5l3.6 3 5.4-6" stroke="#F6A219" stroke-width="2"/></symbol><symbol fill="none" viewBox="0 0 40 40" id="benefit-4" xmlns="http://www.w3.org/2000/svg"><path d="M33.689 16.332l-.978-.21-.107.5.343.38.742-.67zM37 20l.742.67.605-.67-.605-.67L37 20zm-2.278-8.5l.978.21.19-.884-.86-.277-.308.951zm-4.701-1.521l-.951.308.157.486.486.158.308-.952zM28.5 5.278l.951-.308-.277-.86-.883.19.209.978zM23.668 6.31l-.67.742.38.343.5-.107-.21-.978zM20 3l.67-.742-.67-.605-.67.605L20 3zm-3.668 3.311l-.21.978.5.107.38-.343-.67-.742zM11.5 5.278l.21-.978-.884-.19-.277.86.951.308zM9.98 9.979l.307.952.486-.158.158-.486-.952-.308zm-4.702 1.52l-.308-.95-.86.277.19.883.978-.21zm1.033 4.833l.742.67.343-.38-.107-.5-.978.21zM3 20l-.742-.67-.605.67.605.67L3 20zm3.311 3.668l.978.209.107-.5-.343-.38-.742.67zM5.278 28.5l-.978-.21-.19.884.86.277.308-.951zm4.701 1.52l.952-.307-.158-.486-.486-.158-.308.952zm1.521 4.702l-.951.308.277.86.883-.19-.209-.978zm4.832-1.033l.67-.742-.38-.343-.5.107.21.978zM20 36.999l-.67.743.67.605.67-.605L20 37zm3.668-3.31l.209-.978-.5-.107-.38.343.67.742zm4.832 1.033l-.21.978.884.19.277-.86-.951-.308zm1.52-4.701l-.307-.952-.486.158-.158.486.952.308zm4.702-1.521l.308.951.86-.277-.19-.883-.978.209zm-1.033-4.832l-.742-.67-.343.38.107.499.978-.21zm-.742-6.666l3.31 3.668 1.485-1.34-3.31-3.668-1.485 1.34zm.798-5.711l-1.034 4.832 1.956.418L35.7 11.71l-1.955-.418zm-4.032-.36l4.702 1.52.615-1.902-4.701-1.521-.616 1.902zm-2.165-5.346l1.522 4.702 1.902-.616-1.52-4.701-1.904.615zm-3.67 1.704l4.831-1.034-.418-1.955-4.832 1.033.418 1.956zM19.33 3.742l3.668 3.311 1.34-1.484-3.668-3.311-1.34 1.484zm-2.328 3.311l3.668-3.31-1.34-1.485-3.668 3.31 1.34 1.485zm-5.711-.798l4.832 1.034.418-1.956L11.71 4.3l-.418 1.955zm-.36 4.032l1.52-4.702-1.902-.615-1.522 4.7 1.903.616zM5.585 12.45l4.702-1.52-.616-1.903-4.701 1.52.615 1.903zm1.704 3.672L6.256 11.29l-1.956.418 1.033 4.832 1.956-.418zM3.742 20.67l3.311-3.668-1.484-1.34-3.311 3.668 1.484 1.34zm3.311 2.328l-3.31-3.668-1.485 1.34 3.31 3.668 1.485-1.34zm-.798 5.711l1.034-4.832-1.956-.418L4.3 28.29l1.955.418zm4.032.36l-4.702-1.52-.615 1.902 4.701 1.521.616-1.903zm2.164 5.346l-1.52-4.702-1.903.616 1.52 4.701 1.903-.615zm3.672-1.704l-4.832 1.034.418 1.955 4.832-1.033-.418-1.956zm4.547 3.547l-3.668-3.312-1.34 1.485 3.668 3.311 1.34-1.484zm2.328-3.312l-3.668 3.312 1.34 1.484 3.668-3.31-1.34-1.486zm5.711.799l-4.832-1.034-.418 1.956L28.29 35.7l.418-1.956zm.36-4.032l-1.52 4.702 1.902.615 1.521-4.701-1.903-.616zm5.346-2.165l-4.702 1.521.616 1.903 4.701-1.52-.615-1.904zm-1.704-3.671l1.034 4.832 1.955-.418-1.033-4.832-1.956.418zm3.547-4.547l-3.312 3.668 1.485 1.34 3.311-3.668-1.484-1.34zm-20.508.253a3.833 3.833 0 003.833-3.833h-2c0 1.012-.82 1.833-1.833 1.833v2zm-3.833-3.833a3.833 3.833 0 003.833 3.833v-2a1.833 1.833 0 01-1.833-1.833h-2zm3.833-3.833a3.833 3.833 0 00-3.833 3.833h2c0-1.012.82-1.833 1.833-1.833v-2zm3.833 3.833a3.833 3.833 0 00-3.833-3.833v2c1.012 0 1.833.82 1.833 1.833h2zm6.5 8.5c0 1.012-.82 1.833-1.833 1.833v2a3.833 3.833 0 003.833-3.833h-2zm-1.833-1.833c1.012 0 1.833.82 1.833 1.833h2a3.833 3.833 0 00-3.833-3.833v2zm-1.833 1.833c0-1.012.82-1.833 1.833-1.833v-2a3.833 3.833 0 00-3.833 3.833h2zm1.833 1.833a1.833 1.833 0 01-1.833-1.833h-2a3.833 3.833 0 003.833 3.833v-2z" fill="#F6A219"/><path d="M25.667 14.333L14.333 25.667" stroke="#F6A219" stroke-width="1.667"/></symbol><symbol fill="none" viewBox="0 0 36 36" id="check" xmlns="http://www.w3.org/2000/svg"><rect width="36" height="36" rx="18" fill="#F6A219"/><path d="M23 14l-5.839 7.177a1 1 0 01-1.45.106L13 18.8" stroke="#fff" stroke-width="2" stroke-linecap="round" stroke-linejoin="round"/></symbol><symbol fill="none" viewBox="0 0 16 16" id="checked" xmlns="http://www.w3.org/2000/svg"><path d="M13 4l-5.839 7.177a1 1 0 01-1.45.106L3 8.8" stroke="#fff" stroke-width="2" stroke-linecap="round" stroke-linejoin="round"/></symbol><symbol fill="none" viewBox="0 0 16 16" id="download" xmlns="http://www.w3.org/2000/svg"><path d="M8.768 11.078l2.865-3.438A1 1 0 0010.865 6h-5.73a1 1 0 00-.768 1.64l2.865 3.438a1 1 0 001.536 0zM2 12h12v2H2z" fill="#fff"/><path fill="#fff" d="M7 2h2v6H7z"/></symbol><symbol fill="none" viewBox="0 0 96 83" id="logo-footer" xmlns="http://www.w3.org/2000/svg"><path fill-rule="evenodd" clip-rule="evenodd" d="M65.64 43.48a191.54 191.54 0 018.54-.079c2.588.038 5.176.135 7.766.292 2.713.15 5.422.36 8.126.63.56.056 1.14.094 1.724.134 1.237.083 2.499.167 3.663.418 1.04.205.387.87-.335.87-1.53.022-3.062-.081-4.593-.185-.85-.057-1.7-.114-2.547-.15A211.297 211.297 0 0054.9 46.462a134.856 134.856 0 00-14.434 2.408 114.802 114.802 0 00-22.114 7.43c-.253.114-.509.227-.765.34-.938.412-1.883.828-2.759 1.33-.089.05-.178.103-.268.155-.897.524-1.845 1.078-2.943.801C10.612 58.67 10 57.574 10 56.548c0-2.553 1.886-4.568 3.61-6.411a46.9 46.9 0 001.019-1.11 159.454 159.454 0 016.708-7.178c7.175-7.269 14.935-14.168 23.718-19.48l.164-.099c.424-.25 1.056-.621 1.188-1.037.25-.778-.665-.739-1.242-.613-5.805 1.287-11.324 2.835-16.737 5.296-.953.435-1.9.936-2.85 1.44-1.47.777-2.947 1.558-4.466 2.107-2.995 1.083-6.62.53-8.108-2.539-1.088-2.27-.947-5.286-.26-7.656.379-1.373 1.26-2.786 2.58-3.452a10.721 10.721 0 012.432-.756l3.929-.87a125.715 125.715 0 0132.438-3.117l.563.02c3.688.13 8.88.313 8.858 5.106v.287c-.204 3.451-3.956 5.659-6.81 7.338-.285.168-.56.33-.823.487-2.025 1.207-4.096 2.332-6.168 3.458-2.663 1.447-5.328 2.895-7.9 4.516A122.718 122.718 0 0018.4 51.622a.234.234 0 00-.084.144c0 .122.163.16.282.16.79-.011 1.436-.31 2.1-.617.3-.139.604-.279.926-.395a85.99 85.99 0 013.823-1.305c2.566-.826 5.16-1.55 7.778-2.173 10.562-2.504 21.578-3.609 32.417-3.956zM22.21 77.783a5.17 5.17 0 1110.34-.035 5.17 5.17 0 01-10.34.035zm.763 0a4.408 4.408 0 108.816 0 4.408 4.408 0 00-8.816 0zm-16.665.457a.23.23 0 00.162.067l3.218.01a.171.171 0 01.176.176v1.41a.674.674 0 01-.088.317 4.409 4.409 0 11-.242-5.192.238.238 0 00.33.04l.243-.163a.218.218 0 00.09-.23.215.215 0 00-.037-.079 5.151 5.151 0 00-9.165 3.525 5.152 5.152 0 005.158 4.85 4.61 4.61 0 003.69-1.763.053.053 0 01.1.026v1.283a.229.229 0 00.226.229h.18a.229.229 0 00.23-.23v-4.645a.23.23 0 00-.23-.23H6.47a.23.23 0 00-.229.23v.207c0 .061.024.12.067.162zm6.66-5.349a.23.23 0 00-.067.162V82.5a.228.228 0 00.142.212.23.23 0 00.088.017h.295a.234.234 0 00.229-.229v-3.085a.176.176 0 01.176-.181h3.623a.296.296 0 01.23.101l2.292 3.218a.44.44 0 00.357.194h.44a.124.124 0 00.102-.194l-2.376-3.319a.136.136 0 01.062-.203 3.108 3.108 0 002.098-3.015c0-1.714-1.23-3.19-3.38-3.19H13.13a.23.23 0 00-.162.066zm.863.647h3.42c1.733 0 2.672 1.168 2.672 2.49 0 1.323-.94 2.495-2.671 2.495h-3.42a.177.177 0 01-.177-.18v-4.628a.173.173 0 01.108-.165.17.17 0 01.068-.012zm28.347-.647a.229.229 0 00-.067.162v5.916c0 1.869-1.194 3.226-3.407 3.226s-3.407-1.357-3.407-3.226v-5.916a.229.229 0 00-.23-.229h-.295a.23.23 0 00-.229.23v5.937c0 2.225 1.45 3.945 4.161 3.945 2.71 0 4.161-1.742 4.161-3.945v-5.938a.229.229 0 00-.23-.229h-.295a.23.23 0 00-.162.067zm3.623 9.855a.23.23 0 01-.23-.23v-9.463a.229.229 0 01.23-.229h3.596c2.314 0 3.637 1.578 3.637 3.42 0 1.843-1.323 3.408-3.637 3.408h-2.9a.177.177 0 00-.176.18v2.685a.23.23 0 01-.23.229h-.29zm3.565-9.208h-2.87a.171.171 0 00-.175.177v5.046a.174.174 0 00.048.13.172.172 0 00.128.051h2.87c1.846 0 2.9-1.3 2.9-2.697 0-1.398-1.05-2.707-2.9-2.707z" fill="#545365"/><path fill-rule="evenodd" clip-rule="evenodd" d="M0 66h3V3h73v36h3V0H0v66zm37.594-5.833a5.39 5.39 0 00-.847 3.018 5.351 5.351 0 005.369 5.254 5.373 5.373 0 10-4.522-8.272zm1.978 4.072a2.741 2.741 0 01-.207-1.054 2.744 2.744 0 012.75-2.75 2.75 2.75 0 110 5.5 2.743 2.743 0 01-2.543-1.697zM27.81 60.553a.317.317 0 00.22.093l3.98-.014a.119.119 0 01.092.194l-4.332 5.29a.944.944 0 00-.208.555v1.274a.313.313 0 00.309.308h7.97a.313.313 0 00.308-.308v-1.882a.317.317 0 00-.309-.313h-4.165a.12.12 0 01-.093-.194l4.36-5.29a.944.944 0 00.193-.555v-1.273a.313.313 0 00-.308-.31H28.03a.313.313 0 00-.313.31v1.895a.317.317 0 00.093.22zm20.76-2.115a.313.313 0 01.308-.31h4.633c2.596 0 3.79 1.685 3.79 3.695a3.527 3.527 0 01-1.763 3.244.23.23 0 00-.075.34l1.856 2.578a.163.163 0 01-.132.26H54.71a.626.626 0 01-.494-.26l-1.583-2.244a.529.529 0 00-.414-.207h-.806a.265.265 0 00-.26.26v2.142a.313.313 0 01-.309.309h-1.962a.313.313 0 01-.308-.309l-.004-9.499zm4.8 2.049h-1.962a.265.265 0 00-.26.26v2.204a.26.26 0 00.26.256h1.962c1.035 0 1.428-.635 1.428-1.323 0-.81-.393-1.397-1.428-1.397zm9.836 3.917a.317.317 0 00.218.094l2.014.009a.137.137 0 01.128.128v.04a.441.441 0 01-.08.22 2.61 2.61 0 01-2.089 1.049 2.75 2.75 0 010-5.501 2.776 2.776 0 011.962.807.367.367 0 00.48.053l1.596-1.08a.296.296 0 00.053-.415 5.466 5.466 0 00-4.09-1.869 5.254 5.254 0 100 10.508 3.236 3.236 0 002.401-.93.09.09 0 01.093-.026.087.087 0 01.062.075v.379a.317.317 0 00.313.308h1.414a.313.313 0 00.309-.308v-5.29a.317.317 0 00-.309-.312h-4.258a.318.318 0 00-.308.313v1.53c.001.081.034.16.091.218zm5.617-1.22a5.373 5.373 0 115.373 5.255 5.351 5.351 0 01-5.373-5.254zm2.645 0a2.75 2.75 0 102.75-2.75 2.741 2.741 0 00-2.772 2.75h.022z" fill="#545365"/></symbol><symbol fill="none" viewBox="0 0 96 83" id="logo-header" xmlns="http://www.w3.org/2000/svg"><path fill-rule="evenodd" clip-rule="evenodd" d="M65.64 43.48a191.54 191.54 0 018.54-.079c2.588.038 5.176.135 7.766.292 2.713.15 5.422.36 8.126.63.56.056 1.14.094 1.724.134 1.237.083 2.499.167 3.663.418 1.04.205.387.87-.335.87-1.53.022-3.062-.081-4.593-.185-.85-.057-1.7-.114-2.547-.15A211.297 211.297 0 0054.9 46.462a134.856 134.856 0 00-14.434 2.408 114.802 114.802 0 00-22.114 7.43c-.253.114-.509.227-.765.34-.938.412-1.883.828-2.759 1.33-.089.05-.178.103-.268.155-.897.524-1.845 1.078-2.943.801C10.612 58.67 10 57.574 10 56.548c0-2.553 1.886-4.568 3.61-6.411a46.9 46.9 0 001.019-1.11 159.454 159.454 0 016.708-7.178c7.175-7.269 14.935-14.168 23.718-19.48l.164-.099c.424-.25 1.056-.621 1.188-1.037.25-.778-.665-.739-1.242-.613-5.805 1.287-11.324 2.835-16.737 5.296-.953.435-1.9.936-2.85 1.44-1.47.777-2.947 1.558-4.466 2.107-2.995 1.083-6.62.53-8.108-2.539-1.088-2.27-.947-5.286-.26-7.656.379-1.373 1.26-2.786 2.58-3.452a10.721 10.721 0 012.432-.756l3.929-.87a125.715 125.715 0 0132.438-3.117l.563.02c3.688.13 8.88.313 8.858 5.106v.287c-.204 3.451-3.956 5.659-6.81 7.338-.285.168-.56.33-.823.487-2.025 1.207-4.096 2.332-6.168 3.458-2.663 1.447-5.328 2.895-7.9 4.516A122.718 122.718 0 0018.4 51.622a.234.234 0 00-.084.144c0 .122.163.16.282.16.79-.011 1.436-.31 2.1-.617.3-.139.604-.279.926-.395a85.99 85.99 0 013.823-1.305c2.566-.826 5.16-1.55 7.778-2.173 10.562-2.504 21.578-3.609 32.417-3.956zM22.21 77.783a5.17 5.17 0 1110.34-.035 5.17 5.17 0 01-10.34.035zm.763 0a4.408 4.408 0 108.816 0 4.408 4.408 0 00-8.816 0zm-16.665.457a.23.23 0 00.162.067l3.218.01a.171.171 0 01.176.176v1.41a.674.674 0 01-.088.317 4.409 4.409 0 11-.242-5.192.238.238 0 00.33.04l.243-.163a.218.218 0 00.09-.23.215.215 0 00-.037-.079 5.151 5.151 0 00-9.165 3.525 5.152 5.152 0 005.158 4.85 4.61 4.61 0 003.69-1.763.053.053 0 01.1.026v1.283a.229.229 0 00.226.229h.18a.229.229 0 00.23-.23v-4.645a.23.23 0 00-.23-.23H6.47a.23.23 0 00-.229.23v.207c0 .061.024.12.067.162zm6.66-5.349a.23.23 0 00-.067.162V82.5a.228.228 0 00.142.212.23.23 0 00.088.017h.295a.234.234 0 00.229-.229v-3.085a.176.176 0 01.176-.181h3.623a.296.296 0 01.23.101l2.292 3.218a.44.44 0 00.357.194h.44a.124.124 0 00.102-.194l-2.376-3.319a.136.136 0 01.062-.203 3.108 3.108 0 002.098-3.015c0-1.714-1.23-3.19-3.38-3.19H13.13a.23.23 0 00-.162.066zm.863.647h3.42c1.733 0 2.672 1.168 2.672 2.49 0 1.323-.94 2.495-2.671 2.495h-3.42a.177.177 0 01-.177-.18v-4.628a.173.173 0 01.108-.165.17.17 0 01.068-.012zm28.347-.647a.229.229 0 00-.067.162v5.916c0 1.869-1.194 3.226-3.407 3.226s-3.407-1.357-3.407-3.226v-5.916a.229.229 0 00-.23-.229h-.295a.23.23 0 00-.229.23v5.937c0 2.225 1.45 3.945 4.161 3.945 2.71 0 4.161-1.742 4.161-3.945v-5.938a.229.229 0 00-.23-.229h-.295a.23.23 0 00-.162.067zm3.623 9.855a.23.23 0 01-.23-.23v-9.463a.229.229 0 01.23-.229h3.596c2.314 0 3.637 1.578 3.637 3.42 0 1.843-1.323 3.408-3.637 3.408h-2.9a.177.177 0 00-.176.18v2.685a.23.23 0 01-.23.229h-.29zm3.565-9.208h-2.87a.171.171 0 00-.175.177v5.046a.174.174 0 00.048.13.172.172 0 00.128.051h2.87c1.846 0 2.9-1.3 2.9-2.697 0-1.398-1.05-2.707-2.9-2.707z" fill="#191617"/><path fill-rule="evenodd" clip-rule="evenodd" d="M0 66h3V3h73v36h3V0H0v66zm37.594-5.833a5.39 5.39 0 00-.847 3.018 5.351 5.351 0 005.369 5.254 5.373 5.373 0 10-4.522-8.272zm1.978 4.072a2.741 2.741 0 01-.207-1.054 2.744 2.744 0 012.75-2.75 2.75 2.75 0 110 5.5 2.743 2.743 0 01-2.543-1.697zM27.81 60.553a.317.317 0 00.22.093l3.98-.014a.119.119 0 01.092.194l-4.332 5.29a.944.944 0 00-.208.555v1.274a.313.313 0 00.309.308h7.97a.313.313 0 00.308-.308v-1.882a.317.317 0 00-.309-.313h-4.165a.12.12 0 01-.093-.194l4.36-5.29a.944.944 0 00.193-.555v-1.273a.313.313 0 00-.308-.31H28.03a.313.313 0 00-.313.31v1.895a.317.317 0 00.093.22zm20.76-2.115a.313.313 0 01.308-.31h4.633c2.596 0 3.79 1.685 3.79 3.695a3.527 3.527 0 01-1.763 3.244.23.23 0 00-.075.34l1.856 2.578a.163.163 0 01-.132.26H54.71a.626.626 0 01-.494-.26l-1.583-2.244a.529.529 0 00-.414-.207h-.806a.265.265 0 00-.26.26v2.142a.313.313 0 01-.309.309h-1.962a.313.313 0 01-.308-.309l-.004-9.499zm4.8 2.049h-1.962a.265.265 0 00-.26.26v2.204a.26.26 0 00.26.256h1.962c1.035 0 1.428-.635 1.428-1.323 0-.81-.393-1.397-1.428-1.397zm9.836 3.917a.317.317 0 00.218.094l2.014.009a.137.137 0 01.128.128v.04a.441.441 0 01-.08.22 2.61 2.61 0 01-2.089 1.049 2.75 2.75 0 010-5.501 2.776 2.776 0 011.962.807.367.367 0 00.48.053l1.596-1.08a.296.296 0 00.053-.415 5.466 5.466 0 00-4.09-1.869 5.254 5.254 0 100 10.508 3.236 3.236 0 002.401-.93.09.09 0 01.093-.026.087.087 0 01.062.075v.379a.317.317 0 00.313.308h1.414a.313.313 0 00.309-.308v-5.29a.317.317 0 00-.309-.312h-4.258a.318.318 0 00-.308.313v1.53c.001.081.034.16.091.218zm5.617-1.22a5.373 5.373 0 115.373 5.255 5.351 5.351 0 01-5.373-5.254zm2.645 0a2.75 2.75 0 102.75-2.75 2.741 2.741 0 00-2.772 2.75h.022z" fill="#0036B0"/></symbol><symbol fill="none" viewBox="0 0 160 160" id="order" xmlns="http://www.w3.org/2000/svg"><path d="M134.509 81.666V59.173h-8v22.493h8zm0-22.493c0-5.57-4.641-9.84-10.056-9.84v8c1.274 0 2.056.96 2.056 1.84h8zm-10.056-9.84H28.898v8h95.555v-8zm-95.555 0c-5.416 0-10.055 4.27-10.055 9.84h8c0-.88.782-1.84 2.055-1.84v-8zm-10.055 9.84v78.986h8V59.173h-8zm0 78.986c0 5.571 4.64 9.841 10.055 9.841v-8c-1.273 0-2.055-.96-2.055-1.841h-8zM28.898 148h95.555v-8H28.898v8zm95.555 0c5.416 0 10.056-4.271 10.056-9.841h-8c0 .881-.782 1.841-2.056 1.841v8zm10.056-9.841v-22.493h-8v22.493h8zm0-22.493v-34h-8v34h8z" fill="#fff"/><path d="M96 40c8.837 0 16-7.163 16-16S104.837 8 96 8s-16 7.163-16 16 7.163 16 16 16zm-55.87 8a12.746 12.746 0 01-.13-1.78C40 38.366 47.163 32 56 32s16 6.367 16 14.22c0 .603-.047 1.197-.13 1.78M132 88H88.835C86.165 88 84 89.683 84 91.759v12.482c0 2.076 2.165 3.759 4.835 3.759H132" stroke="#fff" stroke-width="8"/></symbol><symbol fill="none" viewBox="0 0 160 160" id="pay" xmlns="http://www.w3.org/2000/svg"><path d="M134.476 28v4-4zM70.73 28v-4 4zM57.397 44.952v4h4v-4h-4zm-26.442 6.719l-3.473-1.985 3.473 1.985zM12.19 84.508l-3.473-1.985-.527.923v1.062h4zm0 34.222h4-4zm31.079 31.937c10.011 0 18.127-8.116 18.127-18.127h-8c0 5.593-4.534 10.127-10.127 10.127v8zM25.143 132.54c0 10.011 8.116 18.127 18.127 18.127v-8c-5.593 0-10.127-4.534-10.127-10.127h-8zm18.127-18.127c-10.011 0-18.127 8.116-18.127 18.127h8c0-5.593 4.534-10.127 10.127-10.127v-8zm18.127 18.127c0-10.011-8.116-18.127-18.127-18.127v8c5.593 0 10.127 4.534 10.127 10.127h8zm71.111 0c0 5.593-4.534 10.127-10.127 10.127v8c10.011 0 18.127-8.116 18.127-18.127h-8zm-10.127-10.127c5.593 0 10.127 4.534 10.127 10.127h8c0-10.011-8.116-18.127-18.127-18.127v8zm-10.127 10.127c0-5.593 4.534-10.127 10.127-10.127v-8c-10.011 0-18.127 8.116-18.127 18.127h8zm10.127 10.127c-5.593 0-10.127-4.534-10.127-10.127h-8c0 10.011 8.116 18.127 18.127 18.127v-8zm-96.856-6.604H28v-8h-2.475v8zm31.872 0H108v-8H57.397v8zm94.413-15.809v-78.92h-8v78.92h8zM134.476 24H70.73v8h63.746v-8zm-81.08 17.333v3.62h8v-3.62h-8zm4-.38H42.532v8h14.866v-8zm-29.914 8.733L8.718 82.523l6.946 3.97 18.764-32.838-6.946-3.969zM8.192 84.508v34.222h8V84.508h-8zm34.34-43.556a17.333 17.333 0 00-15.05 8.734l6.946 3.97a9.333 9.333 0 018.103-4.704v-8zM70.73 24c-9.573 0-17.333 7.76-17.333 17.333h8A9.333 9.333 0 0170.73 32v-8zm81.08 17.333c0-9.573-7.761-17.333-17.334-17.333v8a9.334 9.334 0 019.334 9.333h8zm-15.144 94.717c8.424-.351 15.144-7.288 15.144-15.796h-8a7.81 7.81 0 01-7.477 7.802l.333 7.994zm-111.141-7.987a9.333 9.333 0 01-9.333-9.333h-8c0 9.573 7.76 17.333 17.333 17.333v-8z" fill="#fff"/><path d="M28 56.254h29.397v28.254H12" stroke="#fff" stroke-width="8"/></symbol><symbol fill="none" viewBox="0 0 24 24" id="phone" xmlns="http://www.w3.org/2000/svg"><rect width="24" height="24" rx="12" fill="#F6A219"/><path d="M10.804 13.197c-1.338-1.338-1.64-2.675-1.708-3.211a.48.48 0 01.138-.402l.57-.488a1 1 0 00.163-1.341l-1.379-1.93a1 1 0 00-1.353-.26L5.519 6.667a.946.946 0 00-.437.944c.26 1.586 1.089 4.41 3.993 7.314 2.912 2.912 5.741 3.737 7.326 3.995a.947.947 0 00.934-.423l1.128-1.691a1 1 0 00-.25-1.369l-1.967-1.404a1 1 0 00-1.341.164l-.487.57a.48.48 0 01-.403.138c-.536-.068-1.873-.37-3.21-1.708z" fill="#fff"/></symbol></svg>