<svg width="2316" height="1100" viewBox="0 0 2316 1100" fill="none" xmlns="http://www.w3.org/2000/svg">
<path d="M690.889 867.457L690.892 867.456C746.861 849.425 803.406 833.608 860.527 820.006C1090.88 765.342 1331.13 741.235 1567.56 733.642C1629.68 731.681 1691.77 731.111 1753.83 731.934C1810.25 732.756 1866.7 734.876 1923.19 738.292L1923.19 738.293C1982.37 741.583 2041.45 746.17 2100.43 752.054C2112.7 753.275 2125.35 754.123 2138.1 754.978C2165.07 756.786 2192.53 758.627 2217.88 764.101L2217.89 764.102C2218.47 764.217 2219.17 764.602 2219.97 765.317C2220.76 766.026 2221.63 767.028 2222.57 768.317C2224.44 770.894 2226.53 774.563 2228.81 779.182C2233.37 788.414 2238.63 801.375 2244.27 816.82C2255.54 847.707 2268.28 888.479 2279.82 929.118C2291.36 969.757 2301.7 1010.25 2308.17 1040.58C2311.41 1055.75 2313.67 1068.36 2314.63 1077.17C2315.12 1081.59 2315.27 1085.02 2315.07 1087.33C2314.96 1088.5 2314.77 1089.33 2314.52 1089.86C2314.27 1090.38 2314.02 1090.5 2313.79 1090.5H2313.79C2306.92 1090.61 2299.9 1090.72 2292.78 1090.83C2246.08 1091.58 2194.73 1092.4 2149.82 1090.51C2132.58 1089.7 2115.25 1088.88 2097.84 1088.05C1871.95 1077.29 1632.22 1065.87 1409.74 1090.51C1362.91 1095.74 1307.11 1091.79 1250.38 1087.77C1243.07 1087.26 1235.74 1086.74 1228.42 1086.24C1164.31 1081.86 1100.36 1078.89 1048.33 1090.52L1048.32 1090.52C997.347 1102.05 938.426 1094.48 879.225 1086.87C874.313 1086.24 869.399 1085.61 864.488 1084.99C800.442 1076.89 736.814 1070.61 683.62 1090.54C657.904 1100.14 634.506 1094.83 611.179 1089.54C610.597 1089.4 610.016 1089.27 609.434 1089.14C585.558 1083.73 561.702 1078.73 535.753 1090.55C523.381 1096.11 510.753 1093 498.082 1089.87L497.106 1089.63C484.175 1086.44 471.198 1083.48 458.847 1090.57C437.723 1102.7 415.548 1097.18 389.179 1090.52C378.574 1087.81 369.935 1092.82 363.918 1096.32C363.591 1096.51 363.272 1096.69 362.961 1096.87C361.438 1097.75 360.122 1098.47 358.996 1098.91C357.857 1099.34 357.02 1099.44 356.403 1099.2C355.814 1098.97 355.278 1098.39 354.891 1097.07C354.503 1095.75 354.295 1093.79 354.295 1091C354.295 1057.56 369.173 1010.2 389.247 965.291C409.317 920.389 434.537 878.031 455.148 854.591L454.772 854.261L455.148 854.591C502.411 800.747 551.18 748.516 601.453 697.899L601.454 697.898C757.951 539.205 927.207 388.599 1118.73 272.637L1118.74 272.636C1119.8 271.987 1121.01 271.277 1122.31 270.514C1126.28 268.172 1131.13 265.32 1135.57 262.114C1141.44 257.876 1146.76 252.929 1148.45 247.585C1149.84 243.262 1149.65 239.971 1148.25 237.54C1146.86 235.113 1144.34 233.657 1141.33 232.856C1135.32 231.258 1127.08 232.183 1120.77 233.563L1120.77 233.563C994.123 261.663 873.7 295.464 755.576 349.209L755.575 349.209C733.832 359.15 620.218 421.908 490.048 493.811C461.613 509.517 432.389 525.66 403.16 541.784C321.631 586.758 240.052 631.592 175.446 666.417C143.143 683.829 115.084 698.737 93.3979 709.909C71.6971 721.089 56.4091 728.509 49.6245 730.964C47.6736 731.669 45.8583 731.728 44.1544 731.201C42.4438 730.672 40.8059 729.541 39.2397 727.803C36.0971 724.316 33.314 718.465 30.8704 710.493C25.9879 694.565 22.5285 670.412 20.1099 640.503C15.2739 580.699 14.6097 498.034 14.9726 412.515C15.0947 383.75 15.333 354.661 15.5677 326.013C16.0306 269.502 16.4795 214.705 15.9947 167.481C15.6293 131.899 14.7338 100.604 12.9137 76.1071C12.0037 63.8587 10.862 53.3018 9.43816 44.7537C8.01627 36.2172 6.30702 29.6446 4.24503 25.3889C2.76751 22.3039 1.75895 19.822 1.16329 17.8634C0.563499 15.8913 0.400036 14.5047 0.554748 13.5848C0.630565 13.134 0.779287 12.8168 0.970851 12.5939C1.16015 12.3737 1.4172 12.2153 1.76354 12.1228C2.48281 11.9305 3.54666 12.0332 4.97021 12.4566C7.79858 13.2979 11.7185 15.2991 16.3806 17.9082C18.6165 19.1594 21.0122 20.5441 23.5282 21.9983L23.8276 22.1714C26.4518 23.6881 29.203 25.2764 32.0304 26.8608C43.3199 33.1869 55.9036 39.4973 66.6293 40.9578C72.0022 41.6895 76.9632 41.2124 81.0711 38.8601C85.189 36.5022 88.3747 32.3031 90.2748 25.745L90.2766 25.7387C90.7311 24.0888 92.3741 22.5885 95.3124 21.2791C98.229 19.9794 102.304 18.9212 107.401 18.0831C117.589 16.4079 131.75 15.6297 148.631 15.4941C182.386 15.2228 226.93 17.5205 272.132 20.3029C286.082 21.1616 300.094 22.0664 313.87 22.9559C344.728 24.9485 374.401 26.8646 399.532 28.0141C417.707 28.8456 433.518 29.2767 445.69 29.0452C451.776 28.9294 456.961 28.6479 461.082 28.1663C465.178 27.6875 468.279 27.0054 470.167 26.0577C478.489 22.3335 487.041 23.1518 495.89 24.522C496.961 24.6879 498.037 24.862 499.117 25.0368C506.909 26.2978 514.925 27.595 523.033 26.1059H608.688H608.745L608.8 26.0932C724.644 -0.546128 842.027 -2.58144 960.199 3.06453C1013.56 5.61375 1067.07 9.72846 1120.67 13.8502C1126.43 14.2929 1132.19 14.7356 1137.94 15.1765C1197.32 19.7225 1256.8 24.0718 1316.28 26.1056C1320.27 26.2607 1324.37 26.4048 1328.56 26.5521C1366.69 27.8932 1412.11 29.4905 1449.3 41.9199C1469.93 48.8135 1487.99 59.0268 1500.85 74.3414C1513.71 89.6472 1521.43 110.09 1521.31 137.515V137.517V137.529V137.541V137.554V137.566V137.578V137.59V137.603V137.615V137.627V137.639V137.652V137.664V137.676V137.688V137.701V137.713V137.725V137.737V137.749V137.762V137.774V137.786V137.798V137.811V137.823V137.835V137.847V137.86V137.872V137.884V137.896V137.909V137.921V137.933V137.945V137.957V137.97V137.982V137.994V138.006V138.019V138.031V138.043V138.055V138.068V138.08V138.092V138.104V138.117V138.129V138.141V138.153V138.165V138.178V138.19V138.202V138.214V138.227V138.239V138.251V138.263V138.276V138.288V138.3V138.312V138.325V138.337V138.349V138.361V138.374V138.386V138.398V138.41V138.422V138.435V138.447V138.459V138.471V138.484V138.496V138.508V138.52V138.533V138.545V138.557V138.569V138.582V138.594V138.606V138.618V138.63V138.643V138.655V138.667V138.679V138.692V138.704V138.716V138.728V138.741V138.753V138.765V138.777V138.79V138.802V138.814V138.826V138.838V138.851V138.863V138.875V138.887V138.9V138.912V138.924V138.936V138.949V138.961V138.973V138.985V138.998V139.01V139.022V139.034V139.046V139.059V139.071V139.083V139.095V139.108V139.12V139.132V139.144V139.157V139.169V139.181V139.193V139.206V139.218V139.23V139.242V139.254V139.267V139.279V139.291V139.303V139.316V139.328V139.34V139.352V139.365V139.377V139.389V139.401V139.414V139.426V139.438V139.45V139.462V139.475V139.487V139.499V139.511V139.524V139.536V139.548V139.56V139.573V139.585V139.597V139.609V139.622V139.634V139.646V139.658V139.671V139.683V139.695V139.707V139.719V139.732V139.744V139.756V139.768V139.781V139.793V139.805V139.817V139.83V139.842V139.854V139.866V139.879V139.891V139.903V139.915V139.927V139.94V139.952V139.964V139.976V139.989V140.001V140.013V140.025V140.038V140.05V140.062V140.074V140.087V140.099V140.111V140.123V140.135V140.148V140.16V140.172V140.184V140.197V140.209V140.221V140.233V140.246V140.258V140.27V140.282V140.295V140.307V140.319V140.331V140.343V140.356V140.368V140.38V140.392V140.405V140.417V140.429V140.441V140.454V140.466V140.478V140.49V140.503V140.515V140.527V140.539V140.551V140.564V140.576V140.588V140.6V140.613V140.625V140.637V140.649V140.662V140.674V140.686V140.698V140.711V140.723V140.735V140.747V140.759V140.772V140.784V140.796V140.808V140.821V140.833V140.845V140.857V140.87V140.882V140.894V140.906V140.919V140.931V140.943V140.955V140.967V140.98V140.992V141.004V141.016V141.029V141.041V141.053V141.065V141.078V141.09V141.102V141.114V141.127V141.139V141.151V141.163V141.176V141.188V141.2V141.212V141.224V141.237V141.249V141.261V141.273V141.286V141.298V141.31V141.322V141.335V141.347V141.359V141.371V141.384V141.396V141.408V141.42V141.432V141.445V141.457V141.469V141.481V141.494V141.506V141.518V141.53V141.543V141.555V141.567V141.579V141.592V141.604V141.616V141.628V141.64V141.653V141.665V141.677V141.689V141.702V141.714V141.726V141.738V141.751V141.763V141.775V141.787V141.8V141.812V141.824V141.836V141.848V141.861V141.873V141.885V141.897V141.91V141.922V141.934V141.946V141.959V141.971V141.983V141.995V142.008V142.02V142.032V142.044V142.056V142.069V142.081V142.093V142.105V142.118V142.13V142.142V142.154V142.167V142.179V142.191V142.203V142.216V142.228V142.24V142.252V142.264V142.277V142.289V142.301V142.313V142.326V142.338V142.35V142.362V142.375V142.387V142.399V142.411V142.424V142.436V142.448V142.46V142.473V142.485V142.497V142.509V142.521V142.534V142.546V142.558V142.57V142.583V142.595V142.607V142.619V142.632V142.644V142.656V142.668V142.681V142.693V142.705V142.717V142.729V142.742V142.754V142.766V142.778V142.791V142.803V142.815V142.827V142.84V142.852V142.864V142.876V142.889V142.901V142.913V142.925V142.937V142.95V142.962V142.974V142.986V142.999V143.011V143.023V143.035V143.048V143.06V143.072V143.084V143.097V143.109V143.121V143.133V143.145V143.158V143.17V143.182V143.194V143.207V143.219V143.231V143.243V143.256V143.268V143.28V143.292V143.305V143.317V143.329V143.341V143.353V143.366V143.378V143.39V143.402V143.415V143.427V143.439V143.451V143.464V143.476V143.488V143.5V143.513V143.525V143.537V143.549V143.561V143.574V143.586V143.598V143.61V143.623V143.635V143.647V143.659V143.672V143.684V143.696V143.708V143.721V143.733V143.745V143.757V143.767C1518.87 184.988 1493.15 218.09 1460.07 245.662C1432.99 268.238 1401.04 287.056 1373.01 303.563C1366.8 307.219 1360.78 310.763 1355.05 314.209C1310.88 340.536 1265.71 365.101 1220.51 389.682C1214.06 393.189 1207.61 396.696 1201.16 400.209C1149.53 428.341 1098.05 456.824 1048.17 488.299L1048.17 488.3C860.58 607.521 688.759 749.367 536.673 910.562C535.62 911.427 534.917 912.64 534.696 913.979L534.689 914.019V914.06C534.689 915.669 535.784 916.683 537.086 917.269C538.385 917.854 539.999 918.073 541.338 918.073L541.346 918.072C553.928 917.881 564.853 914.366 575.436 909.894C579.459 908.194 583.418 906.363 587.397 904.522C593.923 901.504 600.504 898.46 607.513 895.926L607.516 895.925C635.082 885.772 662.938 876.282 690.889 867.457Z" fill="#E8F5FA" stroke="black"/>
</svg>
